<svg width="20" height="30" viewBox="0 0 20 30" fill="none" xmlns="http://www.w3.org/2000/svg">
<path d="M9.53114 21.1289C9.05304 22.0939 8.75644 23.5723 8.66791 24.1909C8.66791 24.3455 8.80071 24.16 8.86711 24.0981C9.18585 23.7022 9.97382 22.2424 10.328 21.5619L11.3904 19.2732L12.3532 16.7988L13.0505 14.6028C13.1501 14.1801 13.3426 13.211 13.3161 12.7162C13.2895 12.2213 13.1279 12.3862 13.0505 12.5306L12.5856 13.4894L11.7888 15.3451C11.4236 16.2318 10.6733 18.0545 10.5936 18.2525C10.494 18.4999 9.99596 19.7989 9.53114 21.1289Z" fill="white"/>
<path d="M11.2245 12.4069C11.3857 10.0131 8.54548 17.3893 8.90042 17.6958C9.25536 18.0022 9.29883 17.5721 10.3281 15.438C11.1515 13.7307 11.139 13.6759 11.2245 12.4069Z" fill="white"/>
<path d="M7.8379 28.8921L13.7477 24.4074C13.7477 24.4074 13.0953 24.5209 12.6853 24.6239C11.385 24.9506 11.656 25.0569 9.53116 25.9229C7.40628 26.789 6.91933 26.0982 6.94147 25.6446L6.07824 21.0671C5.51382 18.0875 4.28537 11.6769 3.88696 9.87068C3.38894 7.61285 4.28537 7.73656 6.01183 6.9324C8.43552 5.84988 12.2537 4.61271 13.8805 3.77762C15.0094 3.09718 14.3121 2.07652 13.8805 1.2105C13.6149 0.270252 12.7959 0.571296 12.4197 0.839349C10.3391 2.40643 5.6267 5.9303 3.42214 7.48913C1.16446 8.77578 0.66644 9.86037 0.699641 10.2418L2.09409 15.0359C3.09013 18.0772 5.26148 24.6672 5.97863 26.6962C6.56297 29.2447 7.46162 29.2221 7.8379 28.8921Z" fill="white"/>
<path d="M11.8552 8.50978C8.8339 8.07677 6.54302 10.9841 7.24024 11.5408C7.43391 11.6955 7.69176 11.8625 7.90425 11.7883C8.16986 11.6955 9.13269 11.5718 8.03705 10.2418C9.44478 9.27682 10.3943 9.38611 10.6931 9.56137C11.2797 10.015 12.7782 10.9532 14.0797 11.0769C17.0346 11.2006 17.8646 10.3037 18.5286 9.56137C19.1927 8.81907 19.5579 7.98399 19.0931 7.79841C18.5133 7.56691 17.7982 7.70562 18.2962 9.03558C16.769 10.6748 14.1461 8.94279 11.8552 8.50978Z" fill="white"/>
</svg>
